<?xml version="1.0" encoding="UTF-8" standalone="no"?>
<!-- Created with Inkscape (http://www.inkscape.org/) -->

<svg
   xmlns:dc="http://purl.org/dc/elements/1.1/"
   xmlns:cc="http://creativecommons.org/ns#"
   xmlns:rdf="http://www.w3.org/1999/02/22-rdf-syntax-ns#"
   xmlns:svg="http://www.w3.org/2000/svg"
   xmlns="http://www.w3.org/2000/svg"
   xmlns:sodipodi="http://sodipodi.sourceforge.net/DTD/sodipodi-0.dtd"
   xmlns:inkscape="http://www.inkscape.org/namespaces/inkscape"
   width="560.87762"
   height="1066.0302"
   id="svg3178"
   version="1.1"
   inkscape:version="0.48.5 r10040"
   inkscape:export-filename="/home/andrew/Documents/bb2.png"
   inkscape:export-xdpi="82.160004"
   inkscape:export-ydpi="82.160004"
   sodipodi:docname="bb.svg">
  <defs
     id="defs3180" />
  <sodipodi:namedview
     id="base"
     pagecolor="#ffffff"
     bordercolor="#666666"
     borderopacity="1.0"
     inkscape:pageopacity="0.0"
     inkscape:pageshadow="2"
     inkscape:zoom="1.5611881"
     inkscape:cx="180.72662"
     inkscape:cy="19.007671"
     inkscape:document-units="px"
     inkscape:current-layer="g3147"
     showgrid="false"
     fit-margin-top="0"
     fit-margin-left="0"
     fit-margin-right="0"
     fit-margin-bottom="0"
     inkscape:window-width="1366"
     inkscape:window-height="702"
     inkscape:window-x="0"
     inkscape:window-y="27"
     inkscape:window-maximized="1" />
  <metadata
     id="metadata3183">
    <rdf:RDF>
      <cc:Work
         rdf:about="">
        <dc:format>image/svg+xml</dc:format>
        <dc:type
           rdf:resource="http://purl.org/dc/dcmitype/StillImage" />
        <dc:title></dc:title>
      </cc:Work>
    </rdf:RDF>
  </metadata>
  <g
     inkscape:label="Layer 1"
     inkscape:groupmode="layer"
     id="layer1"
     transform="translate(-94.55767,0.647084)">
    <g
       transform="matrix(1,0,0,0.88877048,-278.31733,119.6604)"
       id="g3147"
       inkscape:export-xdpi="82.160004"
       inkscape:export-ydpi="82.160004">
      <path
         inkscape:export-ydpi="43.225796"
         inkscape:export-xdpi="43.225796"
         inkscape:export-filename="/home/andrew/Documents/path3821-7.png"
         inkscape:connector-curvature="0"
         id="path3092"
         d="m 652.86512,-2.0624812 -277.30731,0 0,1065.9939812 283.04472,0"
         style="fill:#000000;stroke:none" />
      <path
         inkscape:export-ydpi="43.225796"
         inkscape:export-xdpi="43.225796"
         inkscape:export-filename="/home/andrew/Documents/path3821-7.png"
         transform="translate(271.1547,127.3915)"
         d="m 661.3248,656.50983 c 0,154.42434 -123.42744,279.61001 -275.68289,279.61001 -152.25546,0 -275.6829,-125.18567 -275.6829,-279.61001 0,-154.42435 123.42744,-279.61002 275.6829,-279.61002 152.25545,0 275.68289,125.18567 275.68289,279.61002 z"
         sodipodi:ry="279.61002"
         sodipodi:rx="275.68289"
         sodipodi:cy="656.50983"
         sodipodi:cx="385.64191"
         id="path3072"
         style="fill:#000000;stroke:#000000;stroke-width:1;stroke-miterlimit:4;stroke-dasharray:none;stroke-dashoffset:0"
         sodipodi:type="arc" />
      <path
         inkscape:export-ydpi="43.225796"
         inkscape:export-xdpi="43.225796"
         inkscape:export-filename="/home/andrew/Documents/path3821-7.png"
         d="m 661.3248,656.50983 c 0,154.42434 -123.42744,279.61001 -275.68289,279.61001 -152.25546,0 -275.6829,-125.18567 -275.6829,-279.61001 0,-154.42435 123.42744,-279.61002 275.6829,-279.61002 152.25545,0 275.68289,125.18567 275.68289,279.61002 z"
         sodipodi:ry="279.61002"
         sodipodi:rx="275.68289"
         sodipodi:cy="656.50983"
         sodipodi:cx="385.64191"
         id="path3072-9"
         style="fill:#000000;stroke:#000000;stroke-width:1;stroke-miterlimit:4;stroke-dasharray:none;stroke-dashoffset:0"
         sodipodi:type="arc"
         transform="translate(271.94011,-378.41988)" />
      <path
         inkscape:export-ydpi="43.225796"
         inkscape:export-xdpi="43.225796"
         inkscape:export-filename="/home/andrew/Documents/path3821-7.png"
         transform="matrix(1.1820373,0,0,1.1820373,157.63628,255.70818)"
         d="m 504.57442,450.18759 c 0,51.869 -42.04813,93.91714 -93.91713,93.91714 -51.869,0 -93.91714,-42.04814 -93.91714,-93.91714 0,-51.869 42.04814,-93.91714 93.91714,-93.91714 51.869,0 93.91713,42.04814 93.91713,93.91714 z"
         sodipodi:ry="93.917137"
         sodipodi:rx="93.917137"
         sodipodi:cy="450.18759"
         sodipodi:cx="410.65729"
         id="path3051-2"
         style="fill:#000000;stroke:#5599ff;stroke-width:53.2978096;stroke-miterlimit:4;stroke-dasharray:none;stroke-dashoffset:0"
         sodipodi:type="arc" />
      <path
         inkscape:export-ydpi="43.225796"
         inkscape:export-xdpi="43.225796"
         inkscape:export-filename="/home/andrew/Documents/path3821-7.png"
         transform="matrix(1.179762,0,0,1.179762,176.52395,255.00062)"
         d="m 446.87369,394.94223 c 0,9.15335 -7.42026,16.57361 -16.57361,16.57361 -9.15335,0 -16.57361,-7.42026 -16.57361,-16.57361 0,-9.15335 7.42026,-16.57361 16.57361,-16.57361 9.15335,0 16.57361,7.42026 16.57361,16.57361 z"
         sodipodi:ry="16.573612"
         sodipodi:rx="16.573612"
         sodipodi:cy="394.94223"
         sodipodi:cx="430.30008"
         id="path3049-3"
         style="fill:#ffffff;stroke:#ffffff;stroke-width:1;stroke-miterlimit:4;stroke-dasharray:none;stroke-dashoffset:0"
         sodipodi:type="arc" />
      <path
         inkscape:export-ydpi="43.225796"
         inkscape:export-xdpi="43.225796"
         inkscape:export-filename="/home/andrew/Documents/path3821-7.png"
         transform="translate(506.16279,196.47653)"
         d="m 292.18665,591.98407 c 0,84.75328 -69.25575,153.45938 -154.68705,153.45938 -85.431291,0 -154.687039,-68.7061 -154.687039,-153.45938 0,-84.75328 69.255748,-153.45938 154.687039,-153.45938 85.4313,0 154.68705,68.7061 154.68705,153.45938 z"
         sodipodi:ry="153.45938"
         sodipodi:rx="154.68704"
         sodipodi:cy="591.98407"
         sodipodi:cx="137.4996"
         id="path3821-5"
         style="fill:none;stroke:#cccccc;stroke-width:63;stroke-miterlimit:4;stroke-dasharray:none;stroke-dashoffset:0"
         sodipodi:type="arc" />
      <path
         inkscape:export-ydpi="43.225796"
         inkscape:export-xdpi="43.225796"
         inkscape:export-filename="/home/andrew/Documents/path3821-7.png"
         transform="matrix(1.1820373,0,0,1.1820373,164.0729,-259.22174)"
         d="m 504.57442,450.18759 c 0,51.869 -42.04813,93.91714 -93.91713,93.91714 -51.869,0 -93.91714,-42.04814 -93.91714,-93.91714 0,-51.869 42.04814,-93.91714 93.91714,-93.91714 51.869,0 93.91713,42.04814 93.91713,93.91714 z"
         sodipodi:ry="93.917137"
         sodipodi:rx="93.917137"
         sodipodi:cy="450.18759"
         sodipodi:cx="410.65729"
         id="path3051-6"
         style="fill:#000000;stroke:#5599ff;stroke-width:53.2978096;stroke-miterlimit:4;stroke-dasharray:none;stroke-dashoffset:0"
         sodipodi:type="arc" />
      <path
         inkscape:export-ydpi="43.225796"
         inkscape:export-xdpi="43.225796"
         inkscape:export-filename="/home/andrew/Documents/path3821-7.png"
         transform="matrix(1.179762,0,0,1.179762,182.96057,-259.9293)"
         d="m 446.87369,394.94223 c 0,9.15335 -7.42026,16.57361 -16.57361,16.57361 -9.15335,0 -16.57361,-7.42026 -16.57361,-16.57361 0,-9.15335 7.42026,-16.57361 16.57361,-16.57361 9.15335,0 16.57361,7.42026 16.57361,16.57361 z"
         sodipodi:ry="16.573612"
         sodipodi:rx="16.573612"
         sodipodi:cy="394.94223"
         sodipodi:cx="430.30008"
         id="path3049-9"
         style="fill:#ffffff;stroke:#ffffff;stroke-width:1;stroke-miterlimit:4;stroke-dasharray:none;stroke-dashoffset:0"
         sodipodi:type="arc" />
      <path
         inkscape:export-ydpi="43.225796"
         inkscape:export-xdpi="43.225796"
         transform="translate(512.5994,-318.45339)"
         d="m 292.18665,591.98407 c 0,84.75328 -69.25575,153.45938 -154.68705,153.45938 -85.431291,0 -154.687039,-68.7061 -154.687039,-153.45938 0,-84.75328 69.255748,-153.45938 154.687039,-153.45938 85.4313,0 154.68705,68.7061 154.68705,153.45938 z"
         sodipodi:ry="153.45938"
         sodipodi:rx="154.68704"
         sodipodi:cy="591.98407"
         sodipodi:cx="137.4996"
         id="path3821-7"
         style="fill:none;stroke:#cccccc;stroke-width:63;stroke-miterlimit:4;stroke-dasharray:none;stroke-dashoffset:0"
         sodipodi:type="arc" />
    </g>
  </g>
</svg>
